<?xml version="1.0" encoding="utf-8"?><!DOCTYPE svg PUBLIC "-//W3C//DTD SVG 1.1//EN" "http://www.w3.org/Graphics/SVG/1.1/DTD/svg11.dtd"><svg version="1.1" xmlns="http://www.w3.org/2000/svg" xmlns:xlink="http://www.w3.org/1999/xlink" viewBox="0 0 900 750" width="900" height="750"><g class="svg-logo"><g class="base"><g class="logo-element circle"><circle cx="450" cy="375" r="263" fill="rgba(255,228,214,0.63)" stroke="rgba(181,131,141,1)" stroke-width="13"></circle></g></g><g class="text"><g text-anchor="middle" transform="translate(450,332)" class="logo-element double-line"><path d="M2.07-12.96C5.49-3.96 14.76 2.25 24.12 2.25C35.46 2.25 43.92-6.84 43.92-17.19C43.92-23.67 40.59-28.98 32.58-33.21C25.74-36.90 13.14-40.59 13.14-48.96C13.14-54.27 18.27-58.59 24.57-58.59C28.62-58.59 33.57-56.79 33.57-53.01C33.57-51.03 32.22-49.23 30.24-49.77L29.88-45.09C34.92-44.55 38.61-48.06 38.61-52.92C38.61-57.24 35.73-61.02 30.15-62.73C28.44-63.27 26.46-63.54 24.57-63.54C15.66-63.54 8.19-57.51 8.19-48.78C8.19-37.17 21.51-33.12 29.97-28.71C35.01-26.10 38.97-23.31 38.97-17.10C38.97-9.36 32.94-2.70 24.03-2.70C16.83-2.70 9.99-7.11 6.66-14.76ZM76.41-45.72C62.91-45.72 54.00-35.55 54.00-22.23C54.00-8.91 62.91 0.90 76.32 0.90C89.46 0.90 98.73-8.55 98.73-22.32C98.73-35.91 89.64-45.72 76.41-45.72ZM76.41-41.04C86.85-41.04 93.60-33.84 93.60-22.68C93.60-11.97 87.39-3.78 76.41-3.78C65.79-3.78 59.13-11.34 59.13-22.32C59.13-32.76 65.16-41.04 76.41-41.04ZM143.37-8.46C138.87-6.12 134.46-4.14 129.15-4.14C119.52-4.14 113.85-10.53 113.85-21.33C113.85-30.78 118.17-41.67 128.79-41.67C134.37-41.67 139.50-38.61 139.50-32.40L144.63-32.40C144.63-40.86 136.89-46.08 128.43-46.08C116.19-46.08 108.81-35.19 108.81-21.42C108.81-8.28 115.56 0.54 129.15 0.54C134.91 0.54 140.40-1.08 145.71-4.68ZM158.04-63.72C155.97-63.72 154.26-62.01 154.26-59.85C154.26-57.78 155.97-56.07 158.04-56.07C160.20-56.07 161.91-57.78 161.91-59.85C161.91-62.01 160.20-63.72 158.04-63.72ZM160.74-45L155.79-45L155.79-7.20C155.79-2.70 159.30 0.90 163.89 0.90C166.68 0.90 169.02-0.45 170.55-2.70L166.41-5.40C165.78-4.41 164.70-4.05 163.89-4.05C162.36-4.05 160.74-5.31 160.74-7.20ZM217.71-5.49C217.08-4.50 216.09-4.05 215.10-4.05C213.57-4.05 211.95-5.22 211.95-7.20L211.95-44.91L207-44.91C203.76-45.36 198.90-45.72 196.20-45.72C182.43-45.72 174.24-36 174.24-22.14C174.24-9.90 180.63 0.90 193.50 0.90C199.26 0.90 204.21-1.26 207.09-6.12C207.63-2.16 211.05 0.90 215.19 0.90C217.53 0.90 220.14-0.09 221.76-2.70ZM207-16.92C207-14.67 206.55-12.78 205.74-11.16C203.67-6.93 199.26-3.78 193.59-3.78C183.87-3.78 179.37-12.96 179.37-22.32C179.37-32.76 184.95-41.04 195.66-41.04C198.81-41.04 204.21-40.32 207-40.32ZM235.44-65.34L230.49-65.34L230.49-7.29C230.49-2.88 234.09 0.81 238.41 0.81C241.02 0.81 243.72-0.54 245.25-2.79L241.11-5.49C240.48-4.59 239.49-4.14 238.59-4.14C237.06-4.14 235.44-5.31 235.44-7.29Z" fill="rgba(181,131,141,1)" transform="translate(-125,0)"></path><path d="M56.25 136.05C51.66 142.89 43.65 147.03 35.01 147.03C19.89 147.03 8.46 134.61 8.46 119.76C8.46 104.46 20.61 91.05 35.55 91.05C40.14 91.05 46.44 92.31 49.77 95.82C50.85 96.99 51.39 98.16 51.39 99.51C51.39 101.49 50.22 103.11 48.51 103.11C47.79 103.11 47.16 102.84 46.44 102.39L43.38 106.26C44.82 107.34 46.62 107.97 48.42 107.97C52.92 107.97 56.25 104.28 56.25 99.60C56.25 97.62 55.62 95.55 54.45 93.75C50.76 88.08 41.67 86.10 35.46 86.10C18.09 86.10 3.60 101.58 3.60 119.76C3.60 137.40 17.19 151.98 34.92 151.98C44.55 151.98 54.27 147.66 60.30 138.84ZM76.32 84.66L71.37 84.66L71.37 142.71C71.37 147.12 74.97 150.81 79.29 150.81C81.90 150.81 84.60 149.46 86.13 147.21L81.99 144.51C81.36 145.41 80.37 145.86 79.47 145.86C77.94 145.86 76.32 144.69 76.32 142.71ZM96.21 86.28C94.14 86.28 92.43 87.99 92.43 90.15C92.43 92.22 94.14 93.93 96.21 93.93C98.37 93.93 100.08 92.22 100.08 90.15C100.08 87.99 98.37 86.28 96.21 86.28ZM98.91 105L93.96 105L93.96 142.80C93.96 147.30 97.47 150.90 102.06 150.90C104.85 150.90 107.19 149.55 108.72 147.30L104.58 144.60C103.95 145.59 102.87 145.95 102.06 145.95C100.53 145.95 98.91 144.69 98.91 142.80ZM113.40 107.52C115.83 109.95 117.00 113.46 117.00 118.23L117.00 150L121.95 150L121.95 117.78C123.93 112.92 129.15 108.96 135.09 108.96C141.12 108.96 144 113.01 144 119.76L144 150L148.95 150L148.95 117.87C152.28 111.57 156.69 108.96 162.09 108.96C167.76 108.96 170.73 111.84 171.09 118.50L171.09 142.89C171.09 147.21 174.33 150.99 179.19 150.99C182.07 150.99 184.23 149.73 185.85 147.39L181.80 144.69C181.08 145.59 180.18 146.04 179.28 146.04C177.75 146.04 176.04 144.87 176.04 142.89L176.04 118.41C176.04 109.86 170.64 104.28 162.18 104.28C156.06 104.28 151.29 107.25 147.96 112.65C145.89 107.07 141.57 104.28 135.54 104.28C129.33 104.28 124.38 107.25 121.32 112.47C120.60 109.14 119.25 106.62 116.46 104.55ZM199.62 84.66L194.67 84.66L194.67 149.10C196.38 149.64 199.44 150.18 200.88 150.36C203.67 150.72 207.45 150.90 209.61 150.90C225.99 150.90 232.29 140.10 232.29 127.59C232.29 113.91 224.82 104.28 213.30 104.28C208.08 104.28 202.77 106.26 199.62 111.03ZM199.62 145.41L199.62 120.48C199.89 117.06 201.33 114.18 204.48 111.84C206.91 110.04 209.97 108.96 213.03 108.96C220.77 108.96 227.16 115.62 227.16 127.68C227.16 137.40 223.02 146.22 209.52 146.22C208.17 146.22 206.10 146.13 204.39 145.86ZM276.84 141.90C272.34 144.24 268.02 146.22 262.44 146.22C253.35 146.22 248.76 141.09 247.68 132L258.30 132C270.27 132 278.10 127.14 278.10 118.14C278.10 109.59 270.90 104.28 262.08 104.28C247.95 104.28 242.28 117.69 242.28 129.30C242.28 141.54 248.58 150.90 262.44 150.90C268.92 150.90 274.50 148.83 279.18 145.68ZM247.41 127.32C247.41 120.03 251.55 108.69 262.35 108.69C267.84 108.69 273.06 111.66 273.06 118.05C273.06 124.98 266.76 127.32 258.30 127.32ZM288.27 107.52C290.70 109.95 291.87 113.46 291.87 118.23L291.87 150L296.82 150L296.82 117.87C298.35 115.08 300.51 112.65 302.04 111.39C304.02 109.77 306.27 109.05 309.69 109.05C310.86 109.05 312.30 109.14 314.73 109.68L314.73 105C311.40 104.37 310.68 104.28 309.51 104.28C306.72 104.28 304.02 104.82 301.77 106.26C299.79 107.52 297.81 109.77 296.28 112.47C295.56 109.14 294.12 106.62 291.33 104.55ZM317.07 145.68C321.21 148.92 326.43 150.90 332.46 150.90C340.74 150.90 348.75 147.21 348.75 137.94C348.75 133.08 346.59 129.84 342.54 127.41C335.70 123.27 324.81 122.28 324.81 115.08C324.81 111.48 327.60 108.96 332.73 108.96C335.52 108.96 339.57 109.68 343.35 111.66L344.34 107.07C341.46 105.27 336.51 104.28 332.82 104.28C325.53 104.28 319.59 108.24 319.59 115.62C319.59 125.16 329.58 126.33 337.32 130.02C341.46 132 343.53 134.16 343.53 138.03C343.53 144.06 338.40 146.22 332.91 146.22C328.14 146.22 323.64 144.60 319.59 141.90Z" fill="rgba(181,131,141,1)" transform="translate(-177,0)"></path></g><g text-anchor="middle" transform="translate(450,520)" class="logo-element est"><path d="M10.20-2.16C9-1.54 7.85-1.01 6.36-1.01C3.94-1.01 2.71-2.38 2.42-4.80L5.26-4.80C8.45-4.80 10.54-6.10 10.54-8.50C10.54-10.78 8.62-12.19 6.26-12.19C2.50-12.19 0.98-8.62 0.98-5.52C0.98-2.26 2.66 0.24 6.36 0.24C8.09 0.24 9.58-0.31 10.82-1.15ZM2.35-6.05C2.35-7.99 3.46-11.02 6.34-11.02C7.80-11.02 9.19-10.22 9.19-8.52C9.19-6.67 7.51-6.05 5.26-6.05ZM13.27-1.15C14.38-0.29 15.77 0.24 17.38 0.24C19.58 0.24 21.72-0.74 21.72-3.22C21.72-4.51 21.14-5.38 20.06-6.02C18.24-7.13 15.34-7.39 15.34-9.31C15.34-10.27 16.08-10.94 17.45-10.94C18.19-10.94 19.27-10.75 20.28-10.22L20.54-11.45C19.78-11.93 18.46-12.19 17.47-12.19C15.53-12.19 13.94-11.14 13.94-9.17C13.94-6.62 16.61-6.31 18.67-5.33C19.78-4.80 20.33-4.22 20.33-3.19C20.33-1.58 18.96-1.01 17.50-1.01C16.22-1.01 15.02-1.44 13.94-2.16ZM25.75-11.95L25.75-14.98L24.43-14.98L24.43-3.43C24.43-1.22 25.22 0.24 27.43 0.24C28.94 0.24 29.98-0.46 30.70-1.70L29.71-2.42C29.21-1.46 28.37-1.01 27.43-1.01C26.06-1.01 25.75-1.94 25.75-3.43L25.75-10.63L29.54-10.63L29.54-11.95ZM34.08-1.94C33.53-1.94 33.07-1.49 33.07-0.91C33.07-0.36 33.53 0.10 34.08 0.10C34.66 0.10 35.11-0.36 35.11-0.91C35.11-1.49 34.66-1.94 34.08-1.94ZM46.08-11.83C46.63-13.70 48.05-14.76 49.97-14.76C51.98-14.76 53.26-13.56 53.26-11.78C53.26-9.36 50.88-7.92 49.08-6.55C46.68-4.75 44.93-2.93 44.93-0.31L44.93 0L55.39 0L55.39-1.37L46.46-1.37C46.78-2.69 47.69-3.67 49.01-4.75C51.74-7.01 54.60-8.30 54.60-11.76C54.60-14.35 52.97-15.96 49.99-15.96C47.42-15.96 45.79-14.76 44.95-12.41ZM63.79-15.91C59.62-15.91 57.29-12.12 57.29-7.85C57.29-3.62 59.57 0.24 63.79 0.24C67.92 0.24 70.30-3.46 70.30-7.78C70.30-12.05 67.99-15.91 63.79-15.91ZM63.82-14.59C67.10-14.59 68.81-11.42 68.81-7.87C68.81-4.49 67.27-1.08 63.84-1.08C60.50-1.08 58.80-4.34 58.80-7.85C58.80-11.33 60.48-14.59 63.82-14.59ZM73.97-11.83C74.52-13.70 75.94-14.76 77.86-14.76C79.87-14.76 81.14-13.56 81.14-11.78C81.14-9.36 78.77-7.92 76.97-6.55C74.57-4.75 72.82-2.93 72.82-0.31L72.82 0L83.28 0L83.28-1.37L74.35-1.37C74.66-2.69 75.58-3.67 76.90-4.75C79.63-7.01 82.49-8.30 82.49-11.76C82.49-14.35 80.86-15.96 77.88-15.96C75.31-15.96 73.68-14.76 72.84-12.41ZM86.88-11.83C87.43-13.70 88.85-14.76 90.77-14.76C92.78-14.76 94.06-13.56 94.06-11.78C94.06-9.36 91.68-7.92 89.88-6.55C87.48-4.75 85.73-2.93 85.73-0.31L85.73 0L96.19 0L96.19-1.37L87.26-1.37C87.58-2.69 88.49-3.67 89.81-4.75C92.54-7.01 95.40-8.30 95.40-11.76C95.40-14.35 93.77-15.96 90.79-15.96C88.22-15.96 86.59-14.76 85.75-12.41Z" fill="rgba(181,131,141,1)" transform="translate(-49,0)"></path></g></g></g></svg>